# xmcd
#
# Track frame offsets: 
#        150
#        15323
#        29942
#        47049
#        58179
#        70851
#        89516
#        102344
#        120186
#        134443
#
# Disc length: 1970 seconds
#
# Revision: 4
# Processed by: cddbd v1.5.2PL0 Copyright (c) Steve Scherf et al.
# Submitted via: ExactAudioCopy v1.0b1
#
DISCID=8807b00a
DTITLE=Johnny Cash - Boom Chicka Boom
DYEAR=1990
DGENRE=Country
TTITLE0=A Backstage Pass
TTITLE1=Cat's In The Cradle
TTITLE2=Farmer's Almanac
TTITLE3=Don't Go Near The Water
TTITLE4=Family Bible
TTITLE5=Harley
TTITLE6=I Love You, I Love You
TTITLE7=Hidden Shame
TTITLE8=Monteagle Mountain
TTITLE9=That's One You Owe Me
EXTD=
EXTT0=
EXTT1=
EXTT2=
EXTT3=
EXTT4=
EXTT5=
EXTT6=
EXTT7=
EXTT8=
EXTT9=
PLAYORDER=
